<?xml version="1.0" encoding="UTF-8" standalone="no" ?>
<!DOCTYPE svg PUBLIC "-//W3C//DTD SVG 1.1//EN" "http://www.w3.org/Graphics/SVG/1.1/DTD/svg11.dtd">
<svg xmlns="http://www.w3.org/2000/svg" xmlns:xlink="http://www.w3.org/1999/xlink" version="1.1" width="1280" height="1024" viewBox="0 0 1280 1024" xml:space="preserve">
<desc>Created with Fabric.js 5.3.0</desc>
<defs>
</defs>
<g transform="matrix(1 0 0 1 640 512)" id="background-logo"  >
<rect style="stroke: none; stroke-width: 0; stroke-dasharray: none; stroke-linecap: butt; stroke-dashoffset: 0; stroke-linejoin: miter; stroke-miterlimit: 4; fill: rgb(255,255,255); fill-opacity: 0; fill-rule: nonzero; opacity: 1;"  paint-order="stroke"  x="-640" y="-512" rx="0" ry="0" width="1280" height="1024" />
</g>
<g transform="matrix(1.9211538461538462 0 0 1.9211538461538462 640 395.6864080388972)" id="logo-logo"  >
<g style=""  paint-order="stroke"   >
		<g transform="matrix(0.917930923744532 0 0 0.9179309237445321 0 0)"  >
<g style=""  paint-order="stroke"   >
		<g transform="matrix(1 0 0 1 0 0)"  >
<linearGradient id="SVGID_2_5249" gradientUnits="userSpaceOnUse" gradientTransform="matrix(1 0 0 1 -100 -100)"  x1="0" y1="0" x2="0" y2="200">
<stop offset="0%" style="stop-color:rgb(147,103,233);stop-opacity: 1"/>
<stop offset="100%" style="stop-color:rgb(94,31,219);stop-opacity: 1"/>
</linearGradient>
<polygon style="stroke: none; stroke-width: 1; stroke-dasharray: none; stroke-linecap: butt; stroke-dashoffset: 0; stroke-linejoin: miter; stroke-miterlimit: 4; fill: url(#SVGID_2_5249); fill-rule: nonzero; opacity: 1;"  paint-order="stroke"  points="100,100 0,100 0,95.12 95.12,95.12 95.12,-95.12 -95.12,-95.12 -95.12,0 -100,0 -100,-100 100,-100 100,100 " />
</g>
</g>
</g>
</g>
</g>
<g transform="matrix(1.9211538461538462 0 0 1.9211538461538462 639.0351004807692 667.5261716189468)" id="text-logo"  >
<g style=""  paint-order="stroke"   >
		<g transform="matrix(1 0 0 1 0 0)" id="text-logo-path-0"  >
<path style="stroke: rgb(255,255,255); stroke-width: 0; stroke-dasharray: none; stroke-linecap: butt; stroke-dashoffset: 0; stroke-linejoin: miter; stroke-miterlimit: 4; fill: rgb(128,76,230); fill-rule: nonzero; opacity: 1;"  paint-order="stroke"  transform=" translate(-237.02999999999997, 17.15)" d="M 4.41 -8.33 L 4.41 -9.46 L 0.98 -9.46 L 0.98 -7.35 C 0.98 -0.78 3.23 0.49 7.84 0.49 C 12.5 0.49 14.7 -0.78 14.7 -7.35 L 14.7 -34.3 L 5.29 -34.3 L 5.29 -31.36 L 11.27 -31.36 L 11.27 -8.33 C 11.27 -3.87 10.83 -2.94 7.84 -2.94 C 4.85 -2.94 4.41 -3.87 4.41 -8.33 Z M 39.84 -34.3 L 39.84 0 L 54.54 0 L 54.54 -2.94 L 43.27 -2.94 L 43.27 -15.68 L 51.6 -15.68 L 51.6 -18.62 L 43.27 -18.62 L 43.27 -31.36 L 54.05 -31.36 L 54.05 -34.3 Z M 85.08 0.49 C 89.68 0.49 93.41 -0.78 93.41 -7.35 L 93.41 -8.33 C 93.41 -16.22 80.18 -21.27 80.18 -25.97 C 80.18 -30.43 82.09 -31.36 85.08 -31.36 C 88.07 -31.36 89.98 -30.43 89.98 -25.97 L 89.98 -24.01 L 93.41 -24.01 L 93.41 -26.95 C 93.41 -33.52 89.73 -34.79 85.08 -34.79 C 80.47 -34.79 76.75 -33.52 76.75 -26.95 L 76.75 -25.97 C 76.75 -18.91 89.98 -13.87 89.98 -8.33 C 89.98 -3.87 88.07 -2.94 85.08 -2.94 C 82.09 -2.94 80.18 -3.87 80.18 -8.33 L 80.18 -10.88 L 76.75 -10.88 L 76.75 -7.35 C 76.75 -0.88 80.42 0.49 85.08 0.49 Z M 121 -8.33 L 121 -34.3 L 117.57 -34.3 L 117.57 -7.35 C 117.57 -0.78 121.3 0.49 125.9 0.49 C 130.56 0.49 134.23 -0.78 134.23 -7.35 L 134.23 -34.3 L 130.8 -34.3 L 130.8 -8.33 C 130.8 -3.87 128.89 -2.94 125.9 -2.94 C 122.91 -2.94 121 -3.87 121 -8.33 Z M 166.73 0.49 C 171.33 0.49 175.06 -0.78 175.06 -7.35 L 175.06 -8.33 C 175.06 -16.22 161.83 -21.27 161.83 -25.97 C 161.83 -30.43 163.74 -31.36 166.73 -31.36 C 169.72 -31.36 171.63 -30.43 171.63 -25.97 L 171.63 -24.01 L 175.06 -24.01 L 175.06 -26.95 C 175.06 -33.52 171.38 -34.79 166.73 -34.79 C 162.12 -34.79 158.4 -33.52 158.4 -26.95 L 158.4 -25.97 C 158.4 -18.91 171.63 -13.87 171.63 -8.33 C 171.63 -3.87 169.72 -2.94 166.73 -2.94 C 163.74 -2.94 161.83 -3.87 161.83 -8.33 L 161.83 -10.88 L 158.4 -10.88 L 158.4 -7.35 C 158.4 -0.88 162.07 0.49 166.73 0.49 Z M 225.34 -34.3 L 225.34 0 L 240.04 0 L 240.04 -2.94 L 228.77 -2.94 L 228.77 -15.68 L 237.1 -15.68 L 237.1 -18.62 L 228.77 -18.62 L 228.77 -31.36 L 239.55 -31.36 L 239.55 -34.3 Z M 270.58 0.49 C 275.18 0.49 278.91 -0.78 278.91 -7.35 L 278.91 -8.33 C 278.91 -16.22 265.68 -21.27 265.68 -25.97 C 265.68 -30.43 267.59 -31.36 270.58 -31.36 C 273.57 -31.36 275.48 -30.43 275.48 -25.97 L 275.48 -24.01 L 278.91 -24.01 L 278.91 -26.95 C 278.91 -33.52 275.23 -34.79 270.58 -34.79 C 265.97 -34.79 262.25 -33.52 262.25 -26.95 L 262.25 -25.97 C 262.25 -18.91 275.48 -13.87 275.48 -8.33 C 275.48 -3.87 273.57 -2.94 270.58 -2.94 C 267.59 -2.94 265.68 -3.87 265.68 -8.33 L 265.68 -10.88 L 262.25 -10.88 L 262.25 -7.35 C 262.25 -0.88 265.92 0.49 270.58 0.49 Z M 326.26 0 L 329.69 0 L 331.65 -9.31 L 340.42 -9.31 L 342.38 0 L 345.81 0 L 338.6 -34.3 L 333.46 -34.3 Z M 332.28 -12.25 L 336.06 -30.23 L 339.83 -12.25 Z M 389.96 -34.3 L 385.06 -34.3 L 379.23 -13.33 L 373.4 -34.3 L 368.5 -34.3 L 368.5 0 L 371.93 0 L 371.93 -27.24 L 377.47 -7.35 L 381 -7.35 L 386.53 -27.24 L 386.53 0 L 389.96 0 Z M 414.86 -26.95 L 414.86 -7.35 C 414.86 -0.78 418.59 0.49 423.19 0.49 C 427.85 0.49 431.52 -0.88 431.52 -7.35 L 431.52 -26.95 C 431.52 -33.52 427.85 -34.79 423.19 -34.79 C 418.59 -34.79 414.86 -33.52 414.86 -26.95 Z M 418.29 -8.33 L 418.29 -25.97 C 418.29 -30.43 420.2 -31.36 423.19 -31.36 C 426.18 -31.36 428.09 -30.43 428.09 -25.97 L 428.09 -8.33 C 428.09 -3.87 426.18 -2.94 423.19 -2.94 C 420.2 -2.94 418.29 -3.87 418.29 -8.33 Z M 456.42 0 L 459.85 0 L 459.85 -12.74 L 463.28 -12.74 L 469.41 0 L 473.08 0 L 466.81 -13.13 C 469.7 -13.87 471.61 -15.88 471.61 -20.58 L 471.61 -26.46 C 471.61 -33.03 467.94 -34.3 463.28 -34.3 L 456.42 -34.3 Z M 459.85 -15.68 L 459.85 -31.36 L 463.28 -31.36 C 466.27 -31.36 468.18 -30.43 468.18 -25.97 L 468.18 -21.07 C 468.18 -16.61 466.27 -15.68 463.28 -15.68 Z" stroke-linecap="round" />
</g>
</g>
</g>
<g transform="matrix(1.9211538461538462 0 0 1.9211538461538462 633.343201923077 399.19817727327234)" id="tagline-3a78d944-c0db-44d4-8ad5-60158c925687-logo"  >
<g style=""  paint-order="stroke"   >
		<g transform="matrix(1 0 0 1 0 0)" id="tagline-3a78d944-c0db-44d4-8ad5-60158c925687-logo-path-0"  >
<linearGradient id="SVGID_5250" gradientUnits="userSpaceOnUse" gradientTransform="matrix(1 0 0 1 1.9800000000000004 -69.3)"  x1="-1.9800000000000182" y1="-17.734860000000026" x2="-1.9800000000000182" y2="94.26513999999997">
<stop offset="0%" style="stop-color:rgb(147,103,233);stop-opacity: 1"/>
<stop offset="100%" style="stop-color:rgb(94,31,219);stop-opacity: 1"/>
</linearGradient>
<path style="stroke: rgb(255,255,255); stroke-width: 0; stroke-dasharray: none; stroke-linecap: butt; stroke-dashoffset: 0; stroke-linejoin: miter; stroke-miterlimit: 4; fill: url(#SVGID_5250); fill-rule: nonzero; opacity: 1;"  paint-order="stroke"  transform=" translate(-15.84, 34.155)" d="M 8.91 -16.83 L 8.91 -19.11 L 1.98 -19.11 L 1.98 -14.85 C 1.98 -1.58 6.53 0.99 15.84 0.99 C 25.25 0.99 29.7 -1.58 29.7 -14.85 L 29.7 -69.3 L 10.69 -69.3 L 10.69 -63.36 L 22.77 -63.36 L 22.77 -16.83 C 22.77 -7.82 21.88 -5.94 15.84 -5.94 C 9.8 -5.94 8.91 -7.82 8.91 -16.83 Z" stroke-linecap="round" />
</g>
</g>
</g>
<g transform="matrix(1.9211538461538462 0 0 1.9211538461538462 640.6219735576924 764.260186926639)" id="tagline-ee21041c-fd7a-4646-a088-df0a2334375e-logo"  >
<g style=""  paint-order="stroke"   >
		<g transform="matrix(1 0 0 1 0 0)" id="tagline-ee21041c-fd7a-4646-a088-df0a2334375e-logo-path-0"  >
<path style="stroke: none; stroke-width: 0; stroke-dasharray: none; stroke-linecap: butt; stroke-dashoffset: 0; stroke-linejoin: miter; stroke-miterlimit: 4; fill: rgb(118,63,228); fill-rule: nonzero; opacity: 1;"  paint-order="stroke"  transform=" translate(-155.35, 12.25)" d="M 8.05 -24.5 L 2.45 -24.5 L 2.45 -22.4 L 4.03 -22.4 L 4.03 -2.1 L 2.45 -2.1 L 2.45 0 L 8.05 0 L 8.05 -2.1 L 6.48 -2.1 L 6.48 -22.4 L 8.05 -22.4 Z M 49.88 -24.5 L 46.38 -24.5 L 42.21 -9.52 L 38.05 -24.5 L 34.55 -24.5 L 34.55 0 L 37 0 L 37 -19.46 L 40.95 -5.25 L 43.47 -5.25 L 47.43 -19.46 L 47.43 0 L 49.88 0 Z M 77.07 0 L 79.52 0 L 79.52 -8.75 L 81.97 -8.75 C 85.3 -8.75 87.92 -9.73 87.92 -14.35 L 87.92 -18.9 C 87.92 -23.59 85.3 -24.5 81.97 -24.5 L 77.07 -24.5 Z M 79.52 -10.85 L 79.52 -22.4 L 81.97 -22.4 C 84.11 -22.4 85.47 -21.74 85.47 -18.55 L 85.47 -14.7 C 85.47 -11.52 84.11 -10.85 81.97 -10.85 Z M 111.97 0 L 114.42 0 L 115.82 -6.65 L 122.08 -6.65 L 123.48 0 L 125.93 0 L 120.79 -24.5 L 117.11 -24.5 Z M 116.27 -8.75 L 118.97 -21.6 L 121.66 -8.75 Z M 151.38 0 L 153.82 0 L 153.82 -9.1 L 156.28 -9.1 L 160.65 0 L 163.28 0 L 158.8 -9.38 C 160.86 -9.91 162.22 -11.34 162.22 -14.7 L 162.22 -18.9 C 162.22 -23.59 159.6 -24.5 156.28 -24.5 L 151.38 -24.5 Z M 153.82 -11.2 L 153.82 -22.4 L 156.28 -22.4 C 158.41 -22.4 159.78 -21.74 159.78 -18.55 L 159.78 -15.05 C 159.78 -11.87 158.41 -11.2 156.28 -11.2 Z M 186.62 0 L 189.07 0 L 190.47 -6.65 L 196.74 -6.65 L 198.14 0 L 200.59 0 L 195.44 -24.5 L 191.77 -24.5 Z M 190.93 -8.75 L 193.62 -21.6 L 196.32 -8.75 Z M 226.03 0 L 231.28 0 C 234.61 0 237.23 -0.98 237.23 -5.6 L 237.23 -8.4 C 237.23 -11.1 236.36 -12.29 234.96 -12.85 C 236.15 -13.48 236.88 -14.7 236.88 -17.15 L 236.88 -18.9 C 236.88 -23.59 234.26 -24.5 230.93 -24.5 L 226.03 -24.5 Z M 228.48 -2.1 L 228.48 -11.9 L 231.28 -11.9 C 233.42 -11.9 234.78 -11.24 234.78 -7.7 L 234.78 -5.95 C 234.78 -2.77 233.42 -2.1 231.28 -2.1 Z M 228.48 -13.65 L 228.48 -22.4 L 230.93 -22.4 C 233.07 -22.4 234.43 -21.74 234.43 -18.55 L 234.43 -17.5 C 234.43 -14.32 233.07 -13.65 230.93 -13.65 Z M 264.25 -24.5 L 264.25 0 L 273 0 L 273 -2.1 L 266.7 -2.1 L 266.7 -24.5 Z M 297.75 -24.5 L 297.75 0 L 308.25 0 L 308.25 -2.1 L 300.2 -2.1 L 300.2 -11.2 L 306.15 -11.2 L 306.15 -13.3 L 300.2 -13.3 L 300.2 -22.4 L 307.9 -22.4 L 307.9 -24.5 Z" stroke-linecap="round" />
</g>
</g>
</g>
</svg>